# xmcd
#
# Track frame offsets: 
#        150
#        31653
#        58665
#        84115
#        111480
#        137068
#        166160
#        191780
#        216203
#        244563
#        272968
#
# Disc length: 3985 seconds
#
# Revision: 0
# Processed by: cddbd v1.5.2PL0 Copyright (c) Steve Scherf et al.
# Submitted via: ExactAudioCopy v1.0b3
#
DISCID=960f8f0b
DTITLE=Various Artist - Seismic Sound Vol. 10
DYEAR=1900
DGENRE=
TTITLE0=Cal-Q-Lator - Dr. Bradford (Digital Mix)
TTITLE1=Microglobe - Environ-Mentality (Digital Mix)
TTITLE2=Odyssee Of Noises - Firedance (Digital Mix)
TTITLE3=Analog Vougue - Music... Violation (Digital Mix)
TTITLE4=Velocity - Lust (Digital Mix)
TTITLE5=Sequel X - Dukkha (Digital Mix)
TTITLE6=Sunbeam - Outside World (Digital Mix)
TTITLE7=Glass Ceiling - Reroped (Digital Mix)
TTITLE8=Aurora Borealis - The Milky Way (Digital Mix)
TTITLE9=Intrance Feat. D-Sign - Visions Of Love (Digital Mix)
TTITLE10=Silver Surfer - Adagio... Feel It (Digital Mix)
EXTD=
EXTT0=
EXTT1=
EXTT2=
EXTT3=
EXTT4=
EXTT5=
EXTT6=
EXTT7=
EXTT8=
EXTT9=
EXTT10=
PLAYORDER=
